<svg id="Capa_1" enable-background="new 0 0 511.992 511.992" height="512" viewBox="0 0 511.992 511.992" width="512" xmlns="http://www.w3.org/2000/svg"><g><path d="m289.86 306.246c-11.452 0-20.77 9.317-20.77 20.77s9.317 20.771 20.77 20.771 20.771-9.317 20.771-20.771c0-11.453-9.318-20.77-20.771-20.77zm0 26.54c-3.182 0-5.77-2.589-5.77-5.771s2.588-5.77 5.77-5.77 5.771 2.588 5.771 5.77-2.589 5.771-5.771 5.771z"/><path d="m267.546 351.937c-18.185 0-32.979 14.794-32.979 32.979 0 18.184 14.794 32.978 32.979 32.978 18.184 0 32.978-14.794 32.978-32.978-.001-18.186-14.795-32.979-32.978-32.979zm0 50.956c-9.913 0-17.979-8.064-17.979-17.978s8.065-17.979 17.979-17.979 17.978 8.065 17.978 17.979-8.065 17.978-17.978 17.978z"/><path d="m447.251 352.154c4.143 0 7.5-3.357 7.5-7.5v-57.16c0-27.925-22.718-50.643-50.643-50.643h-26.131v-4.465c0-7.89-4.588-14.711-11.225-17.988.617-2.614.95-5.298.95-8 0-16.796-11.971-31.205-28.463-34.262-.596-.111-1.116-.639-1.269-1.284-2.549-10.846-10.027-19.566-20.517-23.927-10.361-4.308-22.14-3.437-31.507 2.333-.516.316-1.208.316-1.728-.002-9.372-5.767-21.156-6.632-31.522-2.318-10.481 4.361-17.952 13.078-20.497 23.917-.15.644-.673 1.171-1.269 1.281-8.189 1.518-15.262 5.838-20.309 11.857-5.212-10.536-7.934-22.098-7.934-34.017v-63.936c0-.189-.005-.377-.014-.653 0-.008-.001-.016-.001-.024-.095-12.896-2.594-23.194-6.812-34.16 5.709-3.461 9.545-9.716 9.545-16.866v-14.608c.001-10.878-8.849-19.729-19.728-19.729h-67.941c-10.879 0-19.729 8.851-19.729 19.729v14.607c0 7.15 3.836 13.405 9.545 16.866-4.182 10.872-6.725 21.198-6.815 34.209 0 .007.001.014.001.02 0 .023-.004.045-.004.068-.005.18-.01.359-.01.54v63.938c0 19.081-7.036 37.396-19.812 51.569-15.175 16.833-23.671 37.954-23.671 63.791v206.202c0 22.306 18.146 40.452 40.451 40.452h108.028c4.418 0 8.729-.715 12.862-2.103 4.299 1.431 8.723 2.103 12.956 2.103h105.31c19.128 0 35.495-13.217 39.941-31.328h27.321c27.925 0 50.643-22.719 50.643-50.644v-50.366c0-4.143-3.357-7.5-7.5-7.5s-7.5 3.357-7.5 7.5v50.366c0 19.654-15.989 35.644-35.643 35.644h-26.131v-15.573h26.131c11.066 0 20.069-9.004 20.069-20.07v-142.526c0-11.066-9.003-20.069-20.069-20.069h-26.131c0-8.916 0-6.73 0-15.573h26.131c19.653 0 35.643 15.989 35.643 35.643v57.16c-.002 4.142 3.355 7.499 7.498 7.499zm-236.775-124.837h78.106v30.521h-83.176v-25.451c0-2.795 2.275-5.07 5.07-5.07zm-20.07 166.846h-118.165v-83.041h118.165zm-118.165 15h118.165v23.284h-118.165zm133.165 56.575c0-9.809 0-181.34 0-192.9h83.426c1.445 8.95 9.13 16.158 18.315 16.465 1.692.055 3.324-.111 4.874-.491v4.979c0 10.666 8.485 19.476 18.916 19.64 10.458.197 19.523-8.219 19.523-19.218v-21.375h12.517v192.9zm152.502-238.421c2.795 0 5.069 2.274 5.069 5.069v25.451h-12.517v-30.521c4.384.001 3.06.001 7.448.001zm-124.242-40.432c6.465-1.198 11.622-6.146 13.138-12.602 1.43-6.089 5.679-11.009 11.656-13.496 6.019-2.506 12.544-2.051 17.9 1.245 5.305 3.263 12.155 3.262 17.452-.002 5.354-3.295 11.871-3.754 17.883-1.254 5.986 2.488 10.24 7.412 11.674 13.508 1.517 6.456 6.673 11.402 13.135 12.601h.001c9.386 1.74 16.197 9.946 16.197 19.514 0 2.013-.308 4.011-.904 5.919h-3.826c-6.898 0-12.511 5.612-12.511 12.511v69.385c0 2.183-1.667 4.167-4.288 4.22-2.251-.035-4.151-2.161-4.151-4.642v-16.612c0-9.131-12.043-12.441-16.778-4.64-1.105 1.821-1.825 1.796-2.596 1.771-2.241-.074-4.065-2.135-4.065-4.593 0-4.914 0-40.028 0-44.89 0-6.898-5.612-12.511-12.511-12.511h-72.694c-1.063-3.411-1.225-7.255-.25-10.973.016-.06.027-.121.043-.18 1.963-7.198 7.882-12.867 15.495-14.279zm-111.145-132.819h58.371c2.07 5.381 5.194 12.69 6.365 23.896h-71.103c1.155-11.036 4.163-18.166 6.367-23.896zm-9.515-34.337c0-2.563 2.166-4.729 4.729-4.729h67.941c2.563 0 4.729 2.166 4.729 4.729v14.607c0 2.518-2.093 4.642-4.598 4.716 0 0-.012-.001-.018-.001-.099.003-.197.008-.302.015h-67.565c-.101-.006-.201-.012-.303-.015 0 0-.012.001-.019.001-2.504-.075-4.596-2.198-4.596-4.716v-14.607zm-20.952 191.861c15.264-16.935 23.67-38.815 23.67-61.612l.002-57.015h71.963v57.015c0 18.146 5.263 35.603 15.252 50.701-.726 4.369-.586 8.85.299 12.988-7.687 2.98-12.833 10.472-12.833 18.72v25.451h-31.255c-4.143 0-7.5 3.357-7.5 7.5s3.357 7.5 7.5 7.5h31.255v23.284h-118.166v-23.284h51.91c4.143 0 7.5-3.357 7.5-7.5s-3.357-7.5-7.5-7.5h-51.706c1.181-17.143 8.026-33.399 19.609-46.248zm5.638 285.402c-14.034 0-25.451-11.418-25.451-25.452v-24.093h118.165v23.413c0 9.212 3.131 18.607 9.318 26.132zm133.845 0c-10.349 0-20.016-6.21-24.149-16.254h153.642c-4.003 9.752-13.57 16.254-24.183 16.254zm172.571-214.567c2.795 0 5.069 2.274 5.069 5.069v142.526c0 2.796-2.274 5.07-5.069 5.07h-26.131v-152.665z"/></g></svg>