<svg id="Layer_1" enable-background="new 0 0 512.043 512.043" height="512" viewBox="0 0 512.043 512.043" width="512" xmlns="http://www.w3.org/2000/svg"><g id="XMLID_1415_"><g id="XMLID_1195_"><path id="XMLID_1210_" d="m506.66 311.647c.973-1.141 1.709-2.491 2.094-3.996 2.028-7.926 3.056-16.123 3.056-24.36 0-54.056-43.978-98.033-98.033-98.033-4.912 0-9.808.374-14.643 1.099v-62.047c0-26.348 20.333-48.022 46.129-50.192h56.74c5.523 0 10-4.477 10-10s-4.477-10-10-10h-311.333c-24.262 0-44-19.738-44-44 0-5.523-4.477-10-10-10s-10 4.477-10 10c0 20.914 10.086 39.516 25.647 51.202-23.319 11.479-39.409 35.483-39.409 63.183v22.047c-4.835-.725-9.731-1.099-14.643-1.099-54.056 0-98.033 43.978-98.033 98.033 0 8.236 1.028 16.432 3.056 24.36.385 1.505 1.121 2.855 2.095 3.997-5.075 12.872-6.603 26.627-4.408 40.119 2.133 13.111 7.643 25.179 16.029 35.265-.25.794-.491 1.59-.715 2.389-8.873 31.577 3.148 65.526 29.912 84.48 1.694 1.199 3.714 1.839 5.779 1.839.228 0 .456-.008.683-.023 7.649-.523 15.255-2.222 22.459-4.975 8.607 18.55 24.379 33.46 44.43 40.604 1.085.387 2.221.58 3.356.58s2.271-.193 3.356-.58c20.051-7.144 35.823-22.054 44.43-40.604 7.203 2.753 14.81 4.452 22.459 4.975.228.016.456.023.683.023 2.064 0 4.085-.64 5.779-1.839 26.764-18.954 38.785-52.903 29.913-84.479-.224-.799-.465-1.595-.716-2.389 8.386-10.086 13.896-22.154 16.029-35.265 2.195-13.492.667-27.248-4.408-40.118.973-1.141 1.71-2.492 2.095-3.997 2.028-7.927 3.056-16.123 3.056-24.36 0-8.806-1.169-17.54-3.476-25.958-1.459-5.326-6.96-8.461-12.287-7.002-5.326 1.459-8.461 6.96-7.002 12.287 1.835 6.697 2.765 13.652 2.765 20.673 0 4.528-.389 9.037-1.159 13.468-24.867 4.323-50.715-3.706-68.676-21.666-17.96-17.96-25.989-43.806-21.666-68.676 11.332-1.97 23.178-1.411 34.221 1.627 5.326 1.464 10.829-1.665 12.294-6.99 1.464-5.325-1.665-10.829-6.99-12.294-13.149-3.617-27.158-4.42-40.699-2.401v-22.05c0-27.782 22.603-50.385 50.385-50.385h216.948c-13.014 12.779-21.106 30.555-21.106 50.192v62.047c-4.834-.725-9.73-1.099-14.643-1.099-54.056 0-98.033 43.978-98.033 98.033 0 8.236 1.028 16.432 3.056 24.36.385 1.505 1.121 2.855 2.095 3.997-5.075 12.872-6.603 26.627-4.408 40.119 2.133 13.111 7.643 25.179 16.03 35.265-.25.794-.491 1.59-.716 2.389-8.873 31.577 3.148 65.526 29.912 84.48 1.694 1.2 3.714 1.839 5.779 1.839.227 0 .455-.008.683-.023 7.649-.524 15.255-2.223 22.458-4.976 8.607 18.55 24.379 33.461 44.43 40.604 1.085.387 2.221.58 3.356.58s2.271-.193 3.356-.58c20.051-7.144 35.823-22.054 44.43-40.604 7.203 2.752 14.809 4.452 22.458 4.976.228.016.456.023.683.023 2.065 0 4.085-.64 5.779-1.839 26.764-18.954 38.785-52.903 29.913-84.48-.224-.799-.465-1.595-.716-2.389 8.386-10.086 13.896-22.154 16.03-35.265 2.195-13.494.667-27.25-4.408-40.121zm-408.395-146.197c4.527 0 9.036.389 13.468 1.16 4.323 24.87-3.706 50.716-21.666 68.676s-43.808 25.987-68.676 21.666c-.771-4.432-1.16-8.941-1.16-13.468.001-43.028 35.007-78.034 78.034-78.034zm59.111 130.486c2.044 6.194 3.102 12.712 3.102 19.333 0 24.784-14.957 47.142-37.57 56.728-22.614-9.586-37.57-31.944-37.57-56.728 0-6.621 1.058-13.139 3.102-19.333 8.576 8.806 19.161 15.69 31.112 19.947 1.085.387 2.221.58 3.356.58s2.271-.193 3.356-.58c11.95-4.258 22.536-11.142 31.112-19.947zm-82.594-18.783c-6.191 11.7-9.445 24.755-9.445 38.116 0 3.908.295 7.768.84 11.562-9.499 5.923-21.326 8.977-33.081 8.465-13.712-15.798-16.962-37.853-8.442-57.727 3.343.344 6.691.525 10.031.525 12.743 0 25.361-2.483 37.106-7.238.91 2.149 1.909 4.248 2.991 6.297zm-19.9 138.441c-17.759-14.328-25.518-38.042-19.425-60.237.124 0 .249.005.373.005 12.632 0 24.999-3.011 35.847-8.646 1.853 4.421 4.083 8.663 6.666 12.676-6.842 11.79-10.441 25.101-10.441 38.908 0 4.582.419 9.094 1.2 13.504-4.564 1.854-9.358 3.144-14.22 3.79zm68.026 35.789c-21.081-9.033-35.006-29.929-35.006-53.083 0-7.78 1.54-15.345 4.497-22.365 7.761 6.995 16.926 12.566 27.153 16.21 1.085.387 2.221.58 3.356.58s2.271-.193 3.356-.58c10.227-3.644 19.393-9.215 27.153-16.211 2.956 7.02 4.496 14.585 4.496 22.366.001 23.154-13.924 44.049-35.005 53.083zm68.027-35.789c-4.862-.646-9.656-1.937-14.221-3.792.781-4.409 1.2-8.922 1.2-13.504 0-13.808-3.598-27.119-10.44-38.908 2.582-4.013 4.813-8.255 6.666-12.676 10.849 5.636 23.215 8.647 35.848 8.646.124 0 .248-.009.372-.01 6.094 22.198-1.664 45.916-19.425 60.244zm20.196-137.5c3.339 0 6.687-.181 10.031-.525 8.52 19.875 5.27 41.928-8.442 57.727-11.753.512-23.581-2.542-33.081-8.465.545-3.794.84-7.653.84-11.562 0-13.361-3.253-26.416-9.444-38.116 1.082-2.049 2.081-4.148 2.99-6.296 11.744 4.755 24.361 7.238 37.106 7.237zm-69.525-28.666c4.518 4.518 9.436 8.532 14.658 12.026-6.013 15.404-18.005 27.787-33.356 34.283-15.351-6.496-27.343-18.879-33.356-34.283 5.222-3.493 10.14-7.507 14.658-12.025 7.746-7.746 14.016-16.662 18.698-26.291 4.683 9.629 10.952 18.544 18.698 26.29zm337.34 125.675c-11.75.512-23.581-2.542-33.081-8.465.545-3.794.84-7.653.84-11.562 0-13.361-3.253-26.416-9.445-38.116 1.083-2.049 2.082-4.148 2.991-6.297 11.745 4.754 24.362 7.237 37.106 7.237 3.339 0 6.688-.181 10.031-.525 8.52 19.876 5.27 41.93-8.442 57.728zm-179.623 0c-13.712-15.798-16.962-37.853-8.442-57.727 3.344.344 6.692.525 10.032.525 12.743 0 25.361-2.483 37.105-7.237.909 2.148 1.908 4.247 2.991 6.296-6.191 11.7-9.445 24.755-9.445 38.116 0 3.908.295 7.768.84 11.562-9.499 5.923-21.326 8.977-33.081 8.465zm89.811-112.157c4.683 9.628 10.952 18.544 18.698 26.29 4.519 4.518 9.436 8.532 14.658 12.026-6.013 15.404-18.005 27.787-33.356 34.282-15.351-6.496-27.343-18.879-33.356-34.283 5.223-3.493 10.14-7.507 14.658-12.025 7.747-7.747 14.016-16.662 18.698-26.29zm-37.57 92.13c0-6.621 1.058-13.14 3.102-19.333 8.576 8.806 19.161 15.69 31.112 19.947 1.085.387 2.221.58 3.356.58s2.271-.193 3.356-.58c11.95-4.258 22.536-11.141 31.112-19.947 2.045 6.194 3.102 12.712 3.102 19.333 0 24.784-14.957 47.142-37.57 56.728-22.613-9.586-37.57-31.944-37.57-56.728zm48.745-148.659c4.432-.771 8.94-1.159 13.468-1.159 43.028 0 78.033 35.005 78.033 78.033 0 4.528-.389 9.037-1.159 13.468-24.871 4.324-50.716-3.706-68.676-21.666-17.961-17.96-25.989-43.806-21.666-68.676zm-35.817-1.159c4.528 0 9.037.389 13.468 1.159 4.323 24.87-3.706 50.716-21.666 68.676s-43.807 25.987-68.676 21.666c-.771-4.432-1.16-8.941-1.16-13.468.001-43.028 35.006-78.033 78.034-78.033zm-43.384 250.144c-17.76-14.328-25.518-38.043-19.425-60.237.125 0 .25.005.375.005 12.632 0 24.998-3.011 35.846-8.646 1.853 4.421 4.083 8.662 6.666 12.675-6.842 11.79-10.44 25.101-10.44 38.908 0 4.582.419 9.094 1.2 13.504-4.565 1.854-9.36 3.144-14.222 3.791zm68.027 35.788c-21.081-9.033-35.006-29.929-35.006-53.083 0-7.78 1.54-15.345 4.496-22.365 7.761 6.996 16.926 12.567 27.153 16.211 1.085.387 2.221.58 3.356.58s2.271-.193 3.356-.58c10.227-3.644 19.392-9.215 27.153-16.211 2.956 7.02 4.496 14.585 4.496 22.365.001 23.154-13.924 44.049-35.004 53.083zm68.026-35.788c-4.862-.646-9.656-1.937-14.221-3.792.781-4.409 1.2-8.922 1.2-13.504 0-13.807-3.598-27.118-10.44-38.908 2.582-4.013 4.813-8.255 6.666-12.676 10.849 5.635 23.214 8.646 35.846 8.646.125 0 .25-.004.375-.005 6.092 22.196-1.666 45.911-19.426 60.239z"/><path id="XMLID_2207_" d="m202.763 174.198c-1.86 1.86-2.93 4.44-2.93 7.07s1.07 5.21 2.93 7.07 4.44 2.93 7.07 2.93 5.21-1.07 7.07-2.93 2.93-4.44 2.93-7.07-1.07-5.21-2.93-7.07-4.44-2.93-7.07-2.93-5.21 1.07-7.07 2.93z"/></g></g></svg>