<svg id="Capa_1" enable-background="new 0 0 511.913 511.913" height="512" viewBox="0 0 511.913 511.913" width="512" xmlns="http://www.w3.org/2000/svg"><path d="m92.535 323.722 10.315 38.495 21.739-5.825c-.095 14.238 1.715 28.406 5.446 42.33l10.315 38.495 38.495-10.315c3.246-.87 6.461-1.856 9.648-2.932 7.153 21.211 19.702 40.182 39.283 59.763l28.18 28.18 28.18-28.18c19.581-19.581 32.13-38.552 39.283-59.763 3.187 1.077 6.403 2.063 9.649 2.932l38.494 10.315 10.315-38.495c3.731-13.924 5.541-28.092 5.446-42.33l21.739 5.825 10.315-38.495c5.481-20.457 6.804-41.82 3.995-62.722h17.583v-40.147c0-80.612-59.68-149.561-140-159.6v-61.253h-90v61.253c-80.308 10.037-140 78.975-140 159.6v40.137l17.585.01c-2.809 20.903-1.486 42.265 3.995 62.722zm28.978-7.764c-4.821-17.993-5.684-36.847-2.609-55.156 23.987-1.216 47.524-8.016 68.62-19.547 3.676 12.374 8.85 24.29 15.355 35.432-17.345 22.551-41.634 38.825-69.299 46.238l-9.518 2.55zm177.127-5.696c-4.864 25.441-17.365 49.206-35.717 67.558l-6.967 6.967-6.967-6.967c-18.352-18.352-30.853-42.116-35.717-67.558 2.686-2.7 5.278-5.503 7.773-8.4 2.167 2.458 4.411 4.851 6.73 7.17l28.18 28.181 28.18-28.181c2.32-2.32 4.563-4.713 6.73-7.17 2.497 2.897 5.089 5.7 7.775 8.4zm-35.717-22.442-6.967 6.967-6.967-6.967c-17.594-17.593-29.859-40.266-35.108-64.555 3.542-2.972 6.97-6.093 10.255-9.378 13.258-13.258 23.988-28.864 31.82-45.867 7.832 17.004 18.563 32.61 31.82 45.867 3.285 3.285 6.713 6.407 10.255 9.378-5.249 24.288-17.514 46.961-35.108 64.555zm-91.842 110.105-9.518 2.55-2.55-9.517c-3.814-14.235-5.166-28.783-4.055-43.365 11.501-4.21 22.421-9.701 32.569-16.342 5.114 17.235 13.115 33.567 23.604 48.168-12.177 8.371-25.802 14.688-40.05 18.506zm91.842 64.595-6.967 6.967-6.967-6.967c-17.195-17.195-27.457-32.907-32.942-50.848 5.127-2.893 10.092-6.068 14.867-9.502l25.042 25.043 25.042-25.043c4.775 3.434 9.74 6.609 14.867 9.502-5.485 17.941-15.747 33.653-32.942 50.848zm89.977-71.562-2.55 9.517-9.517-2.55c-14.25-3.818-27.874-10.135-40.052-18.507 10.489-14.601 18.489-30.933 23.604-48.168 10.148 6.642 21.068 12.132 32.569 16.342 1.112 14.583-.24 29.131-4.054 43.366zm37.5-75-2.55 9.517-9.518-2.55c-27.665-7.413-51.953-23.687-69.299-46.238 6.506-11.142 11.679-23.058 15.355-35.432 21.096 11.531 44.633 18.331 68.62 19.547 3.076 18.309 2.213 37.163-2.608 55.156zm20.557-95.105v10.147h-10.147c-33.995 0-67.462-13.97-91.819-38.327-24.171-24.171-38.033-58.002-38.033-92.82v-9.853h9.853c72.628 0 130.146 59.125 130.146 130.853zm-170-190.853h30v30h-30zm-140 190.853c0-71.708 57.491-130.853 130.147-130.853h9.853v9.853c0 34.818-13.862 68.65-38.033 92.82-24.358 24.357-57.825 38.327-91.82 38.327h-10.147z"/></svg>